<?xml version="1.0" standalone="no"?><!DOCTYPE svg PUBLIC "-//W3C//DTD SVG 1.1//EN" "http://www.w3.org/Graphics/SVG/1.1/DTD/svg11.dtd"><svg t="1679636882962" class="icon" viewBox="0 0 1024 1024" version="1.1" xmlns="http://www.w3.org/2000/svg" p-id="1163" xmlns:xlink="http://www.w3.org/1999/xlink" width="200" height="200"><path d="M512 66C264.6 66 64 266.6 64 514s200.6 448 448 448 448-200.6 448-448S759.4 66 512 66z m216.6 599c3 3 4.6 7 4.6 11.2 0 4.2-1.6 8.4-4.6 11.2l-43.2 43.4c-3.2 3.2-7.2 4.6-11.2 4.6-4 0-8.2-1.6-11.2-4.6L512 579.6l-150.8 151.4c-3 3.2-7.2 4.6-11.2 4.6-4 0-8.2-1.6-11.2-4.6l-43.2-43.4c-3-3-4.6-7-4.6-11.2 0-4.2 1.6-8.4 4.6-11.2l151.4-152-151.8-150c-6.2-6.2-6.2-16.4 0-22.6l43.2-43.4c3-3 7-4.6 11.2-4.6 4.2 0 8.2 1.6 11.2 4.6l151.4 149.4 151.4-149.4c3-3 7-4.6 11.2-4.6 4.2 0 8.2 1.6 11.2 4.6l43.2 43.4c6.2 6.2 6.2 16.4 0 22.6l-151.8 150 151.2 151.8z" p-id="1164" fill="#d81e06"></path></svg>